<?xml version="1.0" standalone="no"?>
<!DOCTYPE svg PUBLIC "-//W3C//DTD SVG 1.1//EN" "http://www.w3.org/Graphics/SVG/1.1/DTD/svg11.dtd">
<svg width="560px" height="125px" version="1.1" xmlns="http://www.w3.org/2000/svg" xmlns:xlink="http://www.w3.org/1999/xlink" xml:space="preserve" style="fill-rule:evenodd;clip-rule:evenodd;stroke-linejoin:round;stroke-miterlimit:1.41421;">
    <g>
        <g id="Layer1">
            <g>
                <path d="M38.5901,33.9808C18.2631,33.9808 4.71174,46.4859 4.71174,65.5315C4.71174,84.577 18.2631,97.1982 38.5901,97.1982C58.801,97.1982 72.3539,84.577 72.3539,65.5315C72.3539,46.4859 58.801,33.9808 38.5901,33.9808ZM38.5901,49.6989C46.7447,49.6989 52.372,56.2378 52.372,65.7605C52.372,75.3994 46.7447,81.8237 38.5901,81.8237C30.3209,81.8237 24.6936,75.3994 24.6936,65.7605C24.6936,56.2378 30.3209,49.6989 38.5901,49.6989Z" style="fill:rgb(0,86,160);fill-rule:nonzero;"/>
            </g>
            <g>
                <path d="M179.55,33.9808C160.371,33.9808 147.281,46.602 147.281,65.7605C147.281,84.577 159.911,97.1982 180.126,97.1982C191.495,97.1982 200.796,93.1836 207.114,86.298L196.662,76.0881C192.529,80.2173 187.245,82.3979 181.847,82.3979C174.498,82.3979 169.216,78.2688 167.263,70.9251L210.788,70.9251C212.165,48.3215 201.372,33.9808 179.55,33.9808ZM166.918,60.254C168.182,52.7973 172.89,47.7488 179.78,47.7488C186.901,47.7488 191.724,52.6812 191.724,60.254L166.918,60.254Z" style="fill:rgb(0,86,160);fill-rule:nonzero;"/>
            </g>
            <g>
                <path d="M255.263,33.7518C246.076,33.8647 238.955,37.5358 234.592,44.7649L234.592,34.6695L214.724,34.6695L214.724,96.5095L234.592,96.5095L234.592,63.812C235.397,56.4684 239.989,51.3038 247.224,51.3038C253.884,51.3038 258.134,55.7797 258.134,63.0072L258.134,96.5095L277.887,96.5095L277.887,57.5007C277.887,43.0455 268.93,33.7518 255.263,33.7518Z" style="fill:rgb(0,86,160);fill-rule:nonzero;"/>
            </g>
            <g>
                <path d="M340.349,33.9808C321.169,33.9808 308.077,46.602 308.077,65.7605C308.077,84.577 320.711,97.1982 340.922,97.1982C352.292,97.1982 361.595,93.1836 367.911,86.298L357.458,76.0881C353.325,80.2173 348.042,82.3979 342.646,82.3979C335.294,82.3979 330.012,78.2688 328.059,70.9251L371.585,70.9251C372.963,48.3215 362.168,33.9808 340.349,33.9808ZM327.715,60.254C328.98,52.7973 333.686,47.7488 340.578,47.7488C347.697,47.7488 352.523,52.6812 352.523,60.254L327.715,60.254Z" style="fill:rgb(77,77,77);fill-rule:nonzero;"/>
            </g>
            <g>
                <path d="M439.13,34.6695L419.377,34.6695L419.377,42.2407C415.245,36.8471 409.042,33.8647 401.118,33.9808C385.615,33.9808 374.935,45.6827 374.935,63.2379C374.935,81.2511 385.959,93.1836 401.576,93.1836C409.271,93.1836 415.358,90.1997 419.377,84.9222L419.377,91.4626C419.377,99.1498 413.637,104.197 404.105,104.197C397.442,104.197 390.554,101.903 384.926,98.0015L378.035,111.426C385.039,116.129 394.8,119.571 405.597,119.571C425.579,119.571 439.13,108.442 439.13,90.8869L439.13,34.6695ZM406.515,78.8414C398.707,78.8414 393.423,72.6461 393.423,63.812C393.423,54.8619 398.707,48.6666 406.515,48.6666C414.21,48.6666 419.377,54.7489 419.377,63.812C419.377,72.6461 414.21,78.8414 406.515,78.8414Z" style="fill:rgb(77,77,77);fill-rule:nonzero;"/>
            </g>
            <g>
                <path d="M475.222,33.7518C464.888,33.7518 456.159,36.276 446.514,40.7503L452.138,53.8311C458.685,50.5021 465.461,48.6666 470.63,48.6666C478.668,48.6666 482.686,52.3376 482.686,58.4184L482.686,59.3362L466.38,59.3362C450.99,59.4507 442.608,66.3363 442.608,78.0397C442.608,89.398 450.648,97.4273 463.853,97.4273C472.236,97.4273 478.783,94.674 482.802,89.398L482.802,96.5095L502.211,96.5095L502.211,56.1248C502.095,42.1277 492.218,33.7518 475.222,33.7518ZM469.94,84.0044C464.428,84.0044 461.211,81.135 461.211,76.6607C461.211,72.0719 464.199,70.0073 470.17,70.0073L482.686,70.0073L482.686,75.5124C481.425,80.5624 476.141,84.0044 469.94,84.0044Z" style="fill:rgb(77,77,77);fill-rule:nonzero;"/>
            </g>
            <g>
                <path d="M532.252,23.1332L535.348,23.1332L535.348,32.6049L537.113,32.6049L537.113,23.1332L540.299,23.1332L540.299,21.4757L532.252,21.4757L532.252,23.1332Z" style="fill:rgb(77,77,77);fill-rule:nonzero;"/>
            </g>
            <g>
                <path d="M541.355,32.6049L543.105,32.6049L543.745,24.5726L546.007,32.6049L547.939,32.6049L550.124,24.5726L550.836,32.6049L552.585,32.6049L551.611,21.4757L549.172,21.4757L546.953,29.6798L544.693,21.4757L542.246,21.4757L541.355,32.6049Z" style="fill:rgb(77,77,77);fill-rule:nonzero;"/>
            </g>
            <g>
                <path d="M96.1895,118.77L76.7493,109.977L76.7493,34.6695L96.6167,34.6695L96.6167,42.8149C100.981,37.1938 107.297,33.9808 115.105,33.9808C132.561,33.9808 144.161,46.715 144.161,65.8766C144.161,84.6931 132.906,97.1982 115.565,97.1982C107.526,97.1982 100.981,93.9853 96.6167,88.2496L96.6167,118.77L96.1895,118.77ZM110.283,81.4802C102.246,81.4802 96.6167,74.9413 96.6167,65.3024C96.6167,55.8957 102.246,49.2392 110.283,49.2392C118.552,49.2392 124.177,55.8957 124.177,65.3024C124.177,74.8252 118.552,81.4802 110.283,81.4802Z" style="fill:rgb(0,86,160);"/>
            </g>
            <g>
                <path d="M303.682,21.4292L303.682,96.5095L283.813,96.5095L283.813,12.4435L303.682,21.4292Z" style="fill:rgb(77,77,77);"/>
            </g>
            <g>
                <path d="M529.891,21.4726L529.891,96.5529L510.024,96.5529L510.024,12.4868L529.891,21.4726Z" style="fill:rgb(77,77,77);"/>
            </g>
        </g>
    </g>
</svg>
