<?xml version="1.0" standalone="no"?>
<!DOCTYPE svg PUBLIC "-//W3C//DTD SVG 1.1//EN" "http://www.w3.org/Graphics/SVG/1.1/DTD/svg11.dtd">
<svg width="560px" height="125px" version="1.1" xmlns="http://www.w3.org/2000/svg" xmlns:xlink="http://www.w3.org/1999/xlink" xml:space="preserve" style="fill-rule:evenodd;clip-rule:evenodd;stroke-linejoin:round;stroke-miterlimit:1.41421;">
    <g>
        <g id="Layer1">
            <g>
                <path d="M42.4428,32.2472C22.3196,32.2472 8.90408,44.627 8.90408,63.4816C8.90408,82.3362 22.3196,94.8309 42.4428,94.8309C62.4511,94.8309 75.8681,82.3362 75.8681,63.4816C75.8681,44.627 62.4511,32.2472 42.4428,32.2472ZM42.4428,47.8077C50.5157,47.8077 56.0866,54.281 56.0866,63.7083C56.0866,73.2505 50.5157,79.6105 42.4428,79.6105C34.2565,79.6105 28.6856,73.2505 28.6856,63.7083C28.6856,54.281 34.2565,47.8077 42.4428,47.8077Z" style="fill:white;fill-rule:nonzero;"/>
            </g>
            <g>
                <path d="M181.989,32.2472C163.003,32.2472 150.044,44.7419 150.044,63.7083C150.044,82.3362 162.548,94.8309 182.559,94.8309C193.814,94.8309 203.023,90.8565 209.277,84.0399L198.93,73.9324C194.838,78.0201 189.607,80.1789 184.263,80.1789C176.988,80.1789 171.759,76.0911 169.826,68.8211L212.914,68.8211C214.278,46.4441 203.593,32.2472 181.989,32.2472ZM169.484,58.257C170.736,50.8751 175.396,45.8772 182.218,45.8772C189.267,45.8772 194.041,50.7602 194.041,58.257L169.484,58.257Z" style="fill:white;fill-rule:nonzero;"/>
            </g>
            <g>
                <path d="M256.943,32.0205C247.849,32.1323 240.799,35.7666 236.48,42.9232L236.48,32.929L216.81,32.929L216.81,94.149L236.48,94.149L236.48,61.7794C237.277,54.5093 241.823,49.3965 248.985,49.3965C255.578,49.3965 259.786,53.8275 259.786,60.9826L259.786,94.149L279.34,94.149L279.34,55.5313C279.34,41.221 270.474,32.0205 256.943,32.0205Z" style="fill:white;fill-rule:nonzero;"/>
            </g>
            <g>
                <path d="M341.176,32.2472C322.188,32.2472 309.228,44.7419 309.228,63.7083C309.228,82.3362 321.735,94.8309 341.743,94.8309C353,94.8309 362.21,90.8565 368.462,84.0399L358.114,73.9324C354.022,78.0201 348.793,80.1789 343.45,80.1789C336.172,80.1789 330.943,76.0911 329.01,68.8211L372.1,68.8211C373.463,46.4441 362.776,32.2472 341.176,32.2472ZM328.669,58.257C329.921,50.8751 334.58,45.8772 341.403,45.8772C348.451,45.8772 353.228,50.7602 353.228,58.257L328.669,58.257Z" style="fill:white;fill-rule:nonzero;"/>
            </g>
            <g>
                <path d="M438.967,32.929L419.412,32.929L419.412,40.4243C415.321,35.0847 409.181,32.1323 401.336,32.2472C385.989,32.2472 375.415,43.8318 375.415,61.2109C375.415,79.0436 386.329,90.8565 401.79,90.8565C409.407,90.8565 415.433,87.9025 419.412,82.6779L419.412,89.1527C419.412,96.7629 413.73,101.759 404.293,101.759C397.697,101.759 390.878,99.4886 385.307,95.626L378.484,108.916C385.419,113.572 395.082,116.98 405.77,116.98C425.552,116.98 438.967,105.962 438.967,88.5827L438.967,32.929ZM406.679,76.658C398.949,76.658 393.718,70.5249 393.718,61.7794C393.718,52.919 398.949,46.7858 406.679,46.7858C414.296,46.7858 419.412,52.8071 419.412,61.7794C419.412,70.5249 414.296,76.658 406.679,76.658Z" style="fill:white;fill-rule:nonzero;"/>
            </g>
            <g>
                <path d="M474.697,32.0205C464.467,32.0205 455.825,34.5194 446.277,38.9488L451.845,51.8985C458.326,48.6029 465.034,46.7858 470.151,46.7858C478.109,46.7858 482.086,50.42 482.086,56.4398L482.086,57.3484L465.944,57.3484C450.708,57.4618 442.41,64.2783 442.41,75.8644C442.41,87.1088 450.369,95.0576 463.442,95.0576C471.741,95.0576 478.222,92.3319 482.201,87.1088L482.201,94.149L501.416,94.149L501.416,54.1692C501.301,40.3124 491.523,32.0205 474.697,32.0205ZM469.468,81.7693C464.012,81.7693 460.826,78.9287 460.826,74.4993C460.826,69.9564 463.785,67.9125 469.696,67.9125L482.086,67.9125L482.086,73.3624C480.838,78.3618 475.607,81.7693 469.468,81.7693Z" style="fill:white;fill-rule:nonzero;"/>
            </g>
            <g>
                <path d="M531.155,21.5084L534.221,21.5084L534.221,30.8851L535.967,30.8851L535.967,21.5084L539.122,21.5084L539.122,19.8675L531.155,19.8675L531.155,21.5084Z" style="fill:white;fill-rule:nonzero;"/>
            </g>
            <g>
                <path d="M540.167,30.8851L541.9,30.8851L542.533,22.9333L544.773,30.8851L546.685,30.8851L548.848,22.9333L549.553,30.8851L551.284,30.8851L550.321,19.8675L547.906,19.8675L545.709,27.9894L543.472,19.8675L541.049,19.8675L540.167,30.8851Z" style="fill:white;fill-rule:nonzero;"/>
            </g>
            <g>
                <path d="M99.4647,116.186L80.2194,107.482L80.2194,32.929L99.8876,32.929L99.8876,40.9927C104.208,35.428 110.461,32.2472 118.191,32.2472C135.472,32.2472 146.955,44.8537 146.955,63.8232C146.955,82.4511 135.813,94.8309 118.646,94.8309C110.688,94.8309 104.208,91.6501 99.8876,85.972L99.8876,116.186L99.4647,116.186ZM113.416,79.2704C105.46,79.2704 99.8876,72.797 99.8876,63.2548C99.8876,53.9424 105.46,47.3527 113.416,47.3527C121.603,47.3527 127.172,53.9424 127.172,63.2548C127.172,72.6821 121.603,79.2704 113.416,79.2704Z" style="fill:white;"/>
            </g>
            <g>
                <path d="M304.877,19.8215L304.877,94.149L285.207,94.149L285.207,10.9259L304.877,19.8215Z" style="fill:white;"/>
            </g>
            <g>
                <path d="M528.818,19.8644L528.818,94.1919L509.15,94.1919L509.15,10.9687L528.818,19.8644Z" style="fill:white;"/>
            </g>
        </g>
    </g>
</svg>
